<svg width="25" height="25" viewBox="0 0 25 25" fill="none" xmlns="http://www.w3.org/2000/svg">
<path d="M18.6541 13.5744C18.6882 13.3192 18.7052 13.0555 18.7052 12.7748C18.7052 12.5026 18.6882 12.2304 18.6456 11.9752L20.3725 10.6311C20.5256 10.512 20.5682 10.2823 20.4746 10.1122L18.8413 7.28791C18.7392 7.10076 18.5265 7.04122 18.3394 7.10076L16.3063 7.91742C15.8809 7.59416 15.4301 7.32194 14.9282 7.11778L14.6219 4.95705C14.5879 4.75289 14.4178 4.60828 14.2136 4.60828H10.947C10.7428 4.60828 10.5812 4.75289 10.5472 4.95705L10.2409 7.11778C9.73903 7.32194 9.27966 7.60266 8.86283 7.91742L6.82971 7.10076C6.64256 7.03271 6.42989 7.10076 6.32781 7.28791L4.70301 10.1122C4.60093 10.2908 4.63496 10.512 4.80509 10.6311L6.53197 11.9752C6.48944 12.2304 6.45541 12.5111 6.45541 12.7748C6.45541 13.0385 6.47242 13.3192 6.51496 13.5744L4.78808 14.9185C4.63496 15.0376 4.59242 15.2673 4.686 15.4374L6.3193 18.2617C6.42138 18.4488 6.63405 18.5084 6.8212 18.4488L8.85432 17.6322C9.27966 17.9554 9.73052 18.2276 10.2324 18.4318L10.5387 20.5925C10.5812 20.7967 10.7428 20.9413 10.947 20.9413H14.2136C14.4178 20.9413 14.5879 20.7967 14.6134 20.5925L14.9197 18.4318C15.4216 18.2276 15.8809 17.9554 16.2978 17.6322L18.3309 18.4488C18.518 18.5169 18.7307 18.4488 18.8328 18.2617L20.4661 15.4374C20.5682 15.2503 20.5256 15.0376 20.364 14.9185L18.6541 13.5744ZM12.5803 15.8372C10.896 15.8372 9.51785 14.4591 9.51785 12.7748C9.51785 11.0904 10.896 9.71235 12.5803 9.71235C14.2646 9.71235 15.6427 11.0904 15.6427 12.7748C15.6427 14.4591 14.2646 15.8372 12.5803 15.8372Z" fill="#DCDCE2"/>
</svg>
