<svg width="9" height="16" viewBox="0 0 9 16" fill="none" xmlns="http://www.w3.org/2000/svg">
<path d="M8.52971 12.3975C8.83304 11.8636 8.9847 11.2934 8.9847 10.6867C8.9847 9.88589 8.80877 9.26102 8.4569 8.81209C8.10504 8.35102 7.6743 8.01735 7.1647 7.81109C6.6551 7.59269 5.99384 7.38642 5.1809 7.19229L3.9979 6.88289C3.4519 6.71302 3.02724 6.48855 2.7239 6.20948C2.4327 5.93042 2.2871 5.54215 2.2871 5.04468C2.2871 4.51082 2.43877 4.08615 2.7421 3.77069C3.05757 3.45522 3.46333 3.26919 3.9979 3.18004C4.45467 3.10387 4.73939 3.12143 5.1809 3.26109C5.62486 3.40152 5.89857 3.52507 6.2001 3.87988C6.4763 4.20489 6.6005 4.50475 6.6369 4.88089H8.8573C8.77237 3.87382 8.4023 3.08515 7.7471 2.51488C7.10404 1.93248 6.24864 1.59275 5.1809 1.49568V0.0214844H3.9979V1.49568C2.85737 1.60488 1.93524 1.99315 1.2315 2.66048C0.52777 3.31568 0.175903 4.14682 0.175903 5.15388C0.175903 5.95469 0.351837 6.58562 0.703703 7.04668C1.0677 7.50775 1.5045 7.84749 2.0141 8.06589C2.5237 8.27215 3.18497 8.47842 3.9979 8.68468L5.1809 8.99409C5.7269 9.16395 6.1455 9.38842 6.4367 9.66749C6.74004 9.93442 6.8917 10.3106 6.8917 10.7959C6.8917 11.2812 6.74004 11.6998 6.4367 12.0517C6.13337 12.3914 5.71477 12.6038 5.1809 12.6887C4.80368 12.7836 4.23506 12.7282 3.9979 12.6887C3.50044 12.6038 3.11824 12.4096 2.8513 12.1063C2.58437 11.7908 2.4327 11.3965 2.3963 10.9233H0.175903C0.175903 11.9182 0.52777 12.719 1.2315 13.3257C1.93524 13.9324 2.85737 14.2903 3.9979 14.3995V15.8737H5.1809V14.3995C5.96957 14.3267 6.64904 14.1083 7.2193 13.7443C7.8017 13.3803 8.2385 12.9314 8.52971 12.3975Z" fill="#DCDCE2"/>
</svg>
