<svg width="21" height="12" viewBox="0 0 21 12" fill="none" xmlns="http://www.w3.org/2000/svg">
<g clip-path="url(#clip0_2_307)">
<path fill-rule="evenodd" clip-rule="evenodd" d="M0.511169 1.25213C0.511169 0.779861 0.893993 0.397012 1.36629 0.397012V0.396484H3.33342C3.92634 0.396484 4.43166 0.498979 4.84878 0.703968C5.26617 0.908958 5.57735 1.19082 5.78239 1.54955C5.99455 1.90828 6.10077 2.31461 6.10077 2.7685C6.10077 3.17848 6.00193 3.56283 5.80436 3.92156C5.61389 4.2803 5.3101 4.56945 4.8928 4.78907C4.48279 5.00875 3.96315 5.11854 3.33342 5.11854H2.04858V7.38288C2.04858 7.80745 1.70438 8.15158 1.27979 8.15158C0.855377 8.15158 0.511169 7.80745 0.511169 7.38288V1.25213ZM3.26762 3.87766C3.69221 3.87766 4.0069 3.78246 4.21186 3.59215C4.4169 3.39446 4.51934 3.11994 4.51934 2.7685C4.51934 2.02177 4.10222 1.64839 3.26762 1.64839H2.04858V3.87766H3.26762Z" fill="white"/>
<path fill-rule="evenodd" clip-rule="evenodd" d="M6.86603 4.96934C6.86603 4.35437 6.98682 3.80896 7.22842 3.33309C7.4773 2.85722 7.81044 2.49118 8.22774 2.23494C8.65233 1.9787 9.12453 1.85059 9.64435 1.85059C10.0982 1.85059 10.4935 1.9421 10.8304 2.12512C11.1744 2.30815 11.4605 2.53876 11.6655 2.81696V2.70931C11.6655 2.28473 12.0097 1.9406 12.4343 1.9406C12.8587 1.9406 13.2029 2.28473 13.2029 2.70931V7.38187C13.2029 7.80645 12.8587 8.15058 12.4341 8.15058C12.0097 8.15058 11.6655 7.80645 11.6655 7.38187V7.14368C11.4678 7.4292 11.1818 7.66713 10.8304 7.85748C10.4862 8.0405 10.0872 8.13202 9.63337 8.13202C9.12084 8.13202 8.65233 8.00024 8.22774 7.73669C7.81044 7.47313 7.4773 7.10342 7.22842 6.62755C6.98682 6.14436 6.86603 5.59162 6.86603 4.96934ZM11.4343 4.0359C11.5807 4.29946 11.6539 4.61792 11.6539 4.99129C11.6539 5.36467 11.5807 5.68679 11.4343 5.95767C11.2878 6.22123 11.0901 6.42621 10.8413 6.57263C10.5924 6.71173 10.3251 6.78128 10.0396 6.78128C9.76137 6.78128 9.49781 6.70807 9.24893 6.56165C9.00734 6.41523 8.80967 6.20658 8.65593 5.93571C8.50947 5.6575 8.4363 5.33538 8.4363 4.96933C8.4363 4.60328 8.50947 4.28848 8.65593 4.02492C8.80967 3.75404 9.00734 3.54905 9.24893 3.40995C9.49052 3.27085 9.75408 3.20131 10.0396 3.20131C10.3251 3.20131 10.5924 3.27451 10.8413 3.42094C11.0901 3.56003 11.2878 3.76502 11.4343 4.0359Z" fill="white"/>
<path d="M19.5378 1.98584C19.1406 1.83575 18.6969 1.98656 18.5469 2.38371L17.2264 6.22778L15.8164 2.42542C15.6667 2.02811 15.2229 1.82757 14.8251 1.97742C14.4274 2.12722 14.2264 2.57075 14.376 2.96807L16.3698 7.90796L15.4982 9.95199C15.3406 10.3462 15.5305 10.7881 15.9071 10.9387C16.2836 11.0892 16.7167 10.8917 16.8742 10.4975L19.9538 2.92469C20.1039 2.52754 19.9348 2.13588 19.5378 1.98584Z" fill="white"/>
</g>
<defs>
<clipPath id="clip0_2_307">
<rect width="20" height="11" fill="white" transform="translate(0.128845 0.320312)"/>
</clipPath>
</defs>
</svg>
