<svg width="15" height="13" viewBox="0 0 15 13" fill="none" xmlns="http://www.w3.org/2000/svg">
<path fill-rule="evenodd" clip-rule="evenodd" d="M13.9035 4.53375H13.9458C14.2962 4.53375 14.5802 4.81966 14.5802 5.17236V8.06736C14.5802 8.42005 14.2962 8.70597 13.9458 8.70597H13.9035V9.81288C13.9035 11.3412 12.6726 12.5802 11.1542 12.5802H4.00618C2.48782 12.5802 1.25694 11.3412 1.25694 9.81288V8.70597H1.21464C0.864248 8.70597 0.5802 8.42005 0.5802 8.06736V5.17236C0.5802 4.81966 0.864248 4.53375 1.21464 4.53375H1.25694V3.25654C1.25694 1.72821 2.48782 0.489258 4.00618 0.489258H11.1542C12.6726 0.489258 13.9035 1.72821 13.9035 3.25654V4.53375ZM6.96887 6.19168L4.59786 3.81062L3.8811 4.53375L5.48654 6.19412L3.87929 7.85376L4.60203 8.57956L6.96887 6.19168ZM8.19349 6.19168L10.5645 3.81062L11.2813 4.53375L9.67582 6.19412L11.2831 7.85376L10.5603 8.57956L8.19349 6.19168Z" fill="#DCDCE2"/>
</svg>
