<svg width="19" height="17" viewBox="0 0 19 17" fill="none" xmlns="http://www.w3.org/2000/svg">
<path d="M16.2619 4.87766C16.2619 5.578 16.0089 6.17733 15.5031 6.67564C14.9972 7.17396 14.3789 7.42312 13.6483 7.42312C12.9176 7.42312 12.2923 7.17396 11.7724 6.67564C11.2525 6.17733 10.9925 5.578 10.9925 4.87766C10.9925 4.17733 11.2525 3.578 11.7724 3.07968C12.2923 2.58137 12.9176 2.33221 13.6483 2.33221C14.3789 2.33221 14.9972 2.58137 15.5031 3.07968C16.0089 3.578 16.2619 4.17733 16.2619 4.87766ZM0.580353 12.9585V8.51403L3.3204 9.56453C3.88246 9.2413 4.51478 9.07968 5.21735 9.07968H5.59675L8.67403 4.83726C8.67403 3.54433 9.15881 2.43995 10.1284 1.52413C11.0979 0.608303 12.2572 0.150391 13.6061 0.150391C14.9832 0.150391 16.1565 0.615037 17.126 1.54433C18.0956 2.47362 18.5804 3.59147 18.5804 4.89787C18.5804 6.20426 18.0956 7.32211 17.126 8.2514C16.1565 9.18069 14.9832 9.64534 13.6061 9.64534L8.8848 12.9585C8.80049 13.8743 8.40705 14.6352 7.70447 15.2413C7.0019 15.8474 6.17286 16.1504 5.21735 16.1504C4.31806 16.1504 3.53117 15.8878 2.8567 15.3625C2.18223 14.8373 1.76068 14.1706 1.59206 13.3625L0.580353 12.9585ZM13.6272 1.68574C12.7138 1.68574 11.934 2.00224 11.2876 2.63524C10.6412 3.26824 10.3181 4.02244 10.3181 4.89787C10.3181 5.77329 10.6412 6.52076 11.2876 7.14029C11.934 7.75982 12.7138 8.06958 13.6272 8.06958C14.5405 8.06958 15.3204 7.75982 15.9668 7.14029C16.6131 6.52076 16.9363 5.77329 16.9363 4.89787C16.9363 4.02244 16.6131 3.26824 15.9668 2.63524C15.3204 2.00224 14.5405 1.68574 13.6272 1.68574ZM5.21735 10.009C5.02063 10.009 4.82391 10.0359 4.62719 10.0898L5.76536 10.4938C6.29932 10.7093 6.68574 11.0797 6.92461 11.6049C7.16349 12.1302 7.17052 12.6622 6.94569 13.2009C6.72087 13.7396 6.33445 14.1167 5.78644 14.3322C5.23843 14.5477 4.6834 14.5612 4.12134 14.3726C3.95272 14.2918 3.72087 14.1908 3.42579 14.0696C3.1307 13.9484 2.92696 13.8743 2.81454 13.8474C3.3204 14.7632 4.12134 15.2211 5.21735 15.2211C5.94803 15.2211 6.58035 14.9652 7.11431 14.4534C7.64827 13.9416 7.91525 13.3288 7.91525 12.615C7.91525 11.9012 7.64827 11.2884 7.11431 10.7767C6.58035 10.2649 5.94803 10.009 5.21735 10.009Z" fill="white"/>
</svg>
