<svg width="48" height="48" viewBox="0 0 48 48" fill="none" xmlns="http://www.w3.org/2000/svg">
<path fill-rule="evenodd" clip-rule="evenodd" d="M23.7159 47.1568C36.6599 47.1568 47.1532 36.6636 47.1532 23.7195C47.1532 10.7755 36.6599 0.282227 23.7159 0.282227C10.7718 0.282227 0.278564 10.7755 0.278564 23.7195C0.278564 36.6636 10.7718 47.1568 23.7159 47.1568ZM24.2883 24.1033C25.3606 22.9509 26.4402 21.7838 27.4833 20.646L28.4032 19.6509L28.4036 19.6505C29.4833 18.4824 30.5826 17.293 31.6776 16.1169C29.5664 15.6005 27.453 15.0839 25.34 14.5674L25.326 14.564C23.2094 14.0467 21.0928 13.5293 18.978 13.0119C18.2267 12.8211 17.4608 12.6376 16.724 12.4614C15.8852 12.2632 15.0317 12.0577 14.1856 11.8375C14.2287 11.8901 14.2719 11.9419 14.3148 11.9935L14.3156 11.9944C14.4103 12.1082 14.5039 12.2207 14.5941 12.3366C14.6595 12.4166 14.7251 12.4982 14.7908 12.58C14.93 12.7534 15.0704 12.9281 15.2141 13.0927L15.2214 13.1C15.6881 13.6651 16.1566 14.232 16.6252 14.7989L16.6259 14.7998C17.0945 15.3667 17.563 15.9336 18.0297 16.4986C20.0868 18.9871 22.2094 21.5635 24.2883 24.1033ZM29.44 21.8031L29.4402 21.803L29.4405 21.8029C29.9534 21.5328 30.4641 21.2638 30.97 20.9983C32.5237 20.1762 34.1285 19.3321 35.7333 18.5099C35.3394 18.2383 34.9528 17.9667 34.5735 17.6951C34.0483 17.3208 33.5012 16.9391 32.9614 16.5647C32.901 16.6365 32.8363 16.7002 32.7739 16.7616L32.7738 16.7617C32.7534 16.7818 32.7332 16.8017 32.7134 16.8216C32.5967 16.9391 32.4873 17.0492 32.3997 17.1666L32.3778 17.1886L31.9763 17.6211C31.0701 18.5971 30.1536 19.5841 29.2704 20.5432L26.8341 23.1711C27.7067 22.7159 28.5765 22.2579 29.438 21.8042L29.44 21.8031ZM23.8818 34.3109L23.8815 34.3135C23.8588 34.5277 23.8362 34.7409 23.8142 34.9525C23.7194 35.8187 23.6318 36.7069 23.5589 37.5877C24.1424 36.7142 24.7406 35.8407 25.3241 34.9892C25.5487 34.6582 25.7788 34.3216 26.0102 33.9831L26.0116 33.9811L26.0143 33.977C26.3152 33.5369 26.6182 33.0936 26.9143 32.6549C27.9593 31.1322 29.0087 29.5915 30.0416 28.075L30.8971 26.8193C32.4143 24.5805 33.9826 22.2829 35.5436 20.0074C33.8294 20.9102 32.1006 21.8205 30.4156 22.7013C28.7251 23.5813 27.0418 24.4685 25.3586 25.3558L25.3577 25.3563L25.3568 25.3567L25.356 25.3572L25.3551 25.3576L25.3533 25.3586C25.2713 25.4081 25.1892 25.4453 25.1072 25.4824L25.1068 25.4826C25.0796 25.4949 25.0523 25.5072 25.0251 25.52C24.9302 25.5567 24.8427 25.6008 24.7625 25.6448C24.7187 26.2981 24.6458 26.9514 24.5728 27.5827L24.5509 27.7589C24.4765 28.6016 24.3862 29.4602 24.2981 30.2986L24.2981 30.2987L24.2981 30.2987L24.2519 30.7391C24.2081 31.145 24.1644 31.564 24.1206 31.983C24.0987 32.1929 24.0768 32.4027 24.0549 32.6109C24.0021 33.174 23.9417 33.7451 23.8819 34.3097L23.8818 34.31L23.8818 34.3103L23.8818 34.3106L23.8818 34.3109ZM13.3613 12.7771C13.4197 12.9483 13.4845 13.1261 13.5493 13.3039C13.5817 13.3926 13.6142 13.4819 13.6458 13.5698C15.2928 18.1852 16.9399 22.794 18.5869 27.4029L18.5895 27.4102L18.5915 27.4158C19.4157 29.7222 20.24 32.0287 21.0642 34.3359L21.8447 36.516C21.9468 36.817 22.0562 37.1253 22.1657 37.4189C22.1797 37.4584 22.1949 37.4992 22.2102 37.5405L22.2102 37.5406L22.2103 37.5406C22.2348 37.6066 22.26 37.6742 22.2824 37.7419C22.3121 37.4623 22.3405 37.1821 22.3686 36.904L22.3686 36.9037L22.3687 36.9029L22.3688 36.9023L22.3688 36.9019C22.4026 36.5674 22.4362 36.2349 22.472 35.9067L22.5123 35.5248L22.5124 35.5244L22.5124 35.5241C22.6531 34.1913 22.7972 32.8261 22.917 31.4731L22.9243 31.4217C22.9243 31.4217 23.041 30.4088 23.092 29.961C23.1003 29.8877 23.109 29.8139 23.1177 29.7399L23.1177 29.7399C23.1473 29.488 23.1773 29.2327 23.1942 28.9774V28.97C23.2525 28.4489 23.3036 27.935 23.3546 27.4212C23.3869 27.1258 23.4181 26.8256 23.4494 26.523V26.523V26.523C23.496 26.0738 23.5431 25.6195 23.5954 25.1677C23.396 24.9454 23.2086 24.7151 23.0243 24.4886L23.024 24.4882C22.9589 24.4082 22.8942 24.3287 22.8294 24.2501C22.6398 24.0153 22.4428 23.773 22.2459 23.5455C21.5797 22.7331 20.9134 21.9273 20.2472 21.1214L20.246 21.12L20.2409 21.1138L20.2404 21.1132L20.2399 21.1126C19.9092 20.7127 19.5786 20.3127 19.2479 19.9119C17.3149 17.5777 15.3308 15.17 13.3613 12.7771Z" fill="url(#paint0_linear_2_223)"/>
<defs>
<linearGradient id="paint0_linear_2_223" x1="23.7159" y1="0.282227" x2="23.7159" y2="59.1761" gradientUnits="userSpaceOnUse">
<stop stop-color="white"/>
<stop offset="1" stop-color="white" stop-opacity="0"/>
</linearGradient>
</defs>
</svg>
