<svg width="48" height="48" viewBox="0 0 48 48" fill="none" xmlns="http://www.w3.org/2000/svg">
<path fill-rule="evenodd" clip-rule="evenodd" d="M24.143 47.1568C37.087 47.1568 47.5803 36.6636 47.5803 23.7195C47.5803 10.7755 37.087 0.282227 24.143 0.282227C11.1989 0.282227 0.705688 10.7755 0.705688 23.7195C0.705688 36.6636 11.1989 47.1568 24.143 47.1568ZM29.1791 19.5838C29.7202 19.3133 30.3289 19.3133 30.8024 19.5838L36.2808 22.7627C36.8219 23.1008 37.0925 23.6419 37.0925 24.183V30.6084C37.0925 31.2171 36.7543 31.7582 36.2808 32.0287L30.8024 35.2076C30.2613 35.4781 29.6526 35.4781 29.1791 35.2076L23.7006 32.0287C23.1596 31.6905 22.889 31.1495 22.889 30.6084V28.3764L25.4592 26.8884V29.0528C25.4592 29.6615 25.7973 30.2026 26.2708 30.4731L29.1791 32.164C29.7202 32.4345 30.3289 32.4345 30.8024 32.164L33.6431 30.4731C34.1841 30.1349 34.4547 29.5939 34.4547 29.0528V25.671C34.4547 25.0623 34.1165 24.5212 33.6431 24.2507L30.7347 22.5598C30.1936 22.2892 29.5849 22.2892 29.1115 22.5598L25.3915 24.7241L22.8214 26.2121L19.1014 28.3764C18.5604 28.647 17.9516 28.647 17.4782 28.3764L11.9997 25.1975C11.4586 24.8594 11.1881 24.3183 11.1881 23.7772V17.4195C11.1881 16.8784 11.4586 16.3373 11.9997 16.0668L17.5458 12.8203C18.0869 12.5497 18.6956 12.5497 19.1691 12.8203L24.5799 15.9991C25.121 16.3373 25.3915 16.8784 25.3915 17.4195V19.7191L22.8214 21.2071V18.9751C22.8214 18.3664 22.4832 17.8253 22.0098 17.5547L19.1014 15.7962C18.5604 15.5257 17.9516 15.5257 17.4782 15.7962L14.5699 17.4871C14.0288 17.8253 13.7582 18.3664 13.7582 18.9075V22.2892C13.7582 22.8979 14.0964 23.439 14.5699 23.7096L17.4782 25.4681C18.0193 25.7386 18.628 25.7386 19.1014 25.4681L22.8214 23.2361L25.3915 21.8158L29.1791 19.5838Z" fill="url(#paint0_linear_2_219)"/>
<defs>
<linearGradient id="paint0_linear_2_219" x1="24.143" y1="0.282227" x2="24.143" y2="59.1761" gradientUnits="userSpaceOnUse">
<stop stop-color="white"/>
<stop offset="1" stop-color="white" stop-opacity="0"/>
</linearGradient>
</defs>
</svg>
