<svg width="15" height="19" viewBox="0 0 15 19" fill="none" xmlns="http://www.w3.org/2000/svg">
<path fill-rule="evenodd" clip-rule="evenodd" d="M13.5255 6.16996C13.3219 4.20429 11.4946 3.54554 9.18553 3.35766V0.629883H7.39862V3.28486C6.9295 3.28486 6.44891 3.29306 5.97218 3.30247V0.629883H4.18537L4.18415 3.3553L4.16486 3.35566C3.78449 3.36259 3.41031 3.3694 3.04599 3.3694V3.36117L0.581297 3.36V5.1331C0.581297 5.1331 1.90153 5.10962 1.87878 5.13195C2.60337 5.13195 2.83864 5.52179 2.90688 5.85878V8.96585C2.95744 8.96585 3.02192 8.96818 3.09534 8.97759H2.90688L2.90566 13.3305C2.87398 13.5419 2.73994 13.8789 2.23417 13.8801C2.25692 13.8989 0.93547 13.8801 0.93547 13.8801L0.580078 15.8622H2.90688C3.16916 15.8622 3.4291 15.8648 3.6862 15.8674C3.85323 15.869 4.01874 15.8707 4.18283 15.8716L4.18415 18.6299H5.96964V15.9009C6.45907 15.9103 6.93326 15.9138 7.3974 15.9138L7.39608 18.6299H9.18299V15.8774C12.1876 15.7178 14.2931 15.0144 14.5536 12.3935C14.7648 10.2834 13.6963 9.34042 11.9903 8.95998C13.0285 8.47149 13.6773 7.60843 13.5255 6.16996ZM6.22877 8.56978L6.31031 8.57096C7.53377 8.5889 10.1921 8.62787 10.1921 6.91106C10.1932 5.15394 7.63165 5.21689 6.37936 5.24768C6.23821 5.25114 6.11373 5.25419 6.01137 5.25419V8.56792C6.07555 8.56784 6.14845 8.56867 6.22877 8.56978ZM6.20623 13.8956L6.356 13.8976C7.81818 13.9171 11.0241 13.96 11.0241 12.0672C11.0241 10.1372 7.95872 10.2011 6.45571 10.2324C6.28523 10.236 6.13485 10.2391 6.01137 10.2389V13.8943C6.07037 13.8943 6.13556 13.8948 6.20623 13.8956Z" fill="#DCDCE2"/>
</svg>
