<svg width="48" height="48" viewBox="0 0 48 48" fill="none" xmlns="http://www.w3.org/2000/svg">
<path fill-rule="evenodd" clip-rule="evenodd" d="M24.1779 47.1568C37.122 47.1568 47.6152 36.6636 47.6152 23.7195C47.6152 10.7755 37.122 0.282227 24.1779 0.282227C11.2338 0.282227 0.740601 10.7755 0.740601 23.7195C0.740601 36.6636 11.2338 47.1568 24.1779 47.1568ZM26.6811 16.5492V19.8346C32.2915 20.1165 36.5077 21.324 36.5133 22.7706C36.5133 24.2171 32.2971 25.4246 26.6868 25.7065V36.2185H21.686V25.7065C16.07 25.4246 11.8425 24.2171 11.8425 22.7706C11.8425 21.324 16.07 20.1165 21.686 19.8346V16.5492H14.7718V11.5476H33.5953V16.5492H26.6811ZM26.6171 24.8213L26.6865 24.8178C31.6364 24.5726 35.3334 23.6348 35.3447 22.5131C35.3447 21.3915 31.6477 20.4537 26.6921 20.2146V23.88C26.5454 23.8984 25.7721 23.9658 24.2312 23.9658C22.9443 23.9658 22.0187 23.9045 21.6913 23.88V20.2269C16.7244 20.4659 13.0218 21.4037 13.0218 22.5254C13.0218 23.6471 16.7301 24.5849 21.6913 24.8239V24.8178C22.0131 24.8362 22.9161 24.873 24.2087 24.873C25.6428 24.873 26.373 24.8343 26.6171 24.8213Z" fill="url(#paint0_linear_2_226)"/>
<defs>
<linearGradient id="paint0_linear_2_226" x1="24.1779" y1="0.282227" x2="24.1779" y2="59.1761" gradientUnits="userSpaceOnUse">
<stop stop-color="white"/>
<stop offset="1" stop-color="white" stop-opacity="0"/>
</linearGradient>
</defs>
</svg>
