<svg width="53" height="32" viewBox="0 0 53 32" fill="none" xmlns="http://www.w3.org/2000/svg">
<path d="M37.0774 31.8515C36.0998 31.7301 35.1712 31.2311 34.4847 30.4583C33.7006 29.5757 33.3046 28.5132 33.3043 27.2917C33.3043 26.7331 33.3518 26.3894 33.4968 25.9004C33.7916 24.9065 34.2933 24.202 35.2207 23.4799C38.0336 21.2896 41.8229 14.7618 43.5095 9.20063C43.9839 7.63649 44.2239 6.42944 44.2851 5.29929C44.3247 4.56727 44.399 4.02685 44.5136 3.63747C44.9426 2.17888 46.0825 1.0379 47.4886 0.659534C48.5076 0.385341 49.5434 0.512513 50.484 1.02728C51.7096 1.69805 52.558 2.9669 52.7589 4.42925C52.8244 4.90643 52.8043 5.65718 52.7148 6.07297C52.5276 6.94218 52.1708 7.64017 51.5958 8.26157C51.4421 8.42767 51.206 8.64278 51.0711 8.7396C50.1785 9.38037 49.1025 10.5464 48.0786 11.9826C45.4595 15.6561 43.089 20.7389 42.1668 24.6588C41.8891 25.8393 41.7723 26.7086 41.7688 27.6209C41.7656 28.4824 41.4325 29.4423 40.8817 30.1772C40.2632 31.0026 39.3864 31.5691 38.3901 31.7872C38.041 31.8636 37.4198 31.8941 37.0774 31.8515V31.8515ZM15.0419 31.8024C13.4587 31.5112 12.1515 30.2985 11.7033 28.7054C11.5915 28.3079 11.5492 28.0333 11.5008 27.3904C11.3925 25.9515 11.3041 25.3147 11.0893 24.4274C10.3478 21.3638 8.58421 17.3011 6.55882 13.9909C5.56488 12.3664 4.67886 11.15 3.73205 10.1101C3.18762 9.5121 2.81265 9.15874 2.37508 8.83133C1.95399 8.51625 1.73499 8.30698 1.47301 7.96934C1.05297 7.42801 0.797829 6.89427 0.629428 6.20466C0.549469 5.87723 0.534908 5.7504 0.521712 5.26636C0.500669 4.49454 0.580807 3.98229 0.821717 3.34874C1.3514 1.95575 2.4861 0.939307 3.88768 0.602279C4.30359 0.50227 5.15565 0.493241 5.57654 0.584382C6.44298 0.772005 7.14936 1.18058 7.77786 1.85765C8.17245 2.28273 8.41476 2.64716 8.59957 3.09346C8.8681 3.74197 8.96421 4.21943 9.00383 5.10175C9.10221 7.29237 9.98371 10.3076 11.5182 13.7024C12.4949 15.8631 14.0501 18.668 14.5902 19.2429C15.1046 19.7904 15.7904 20.1124 16.5308 20.154C17.2586 20.195 17.9353 19.9795 18.489 19.5304C18.8454 19.2414 19.7546 18.0225 20.4157 16.9474C21.6438 14.9504 22.3633 13.1141 22.4914 11.6498C22.6799 9.4971 24.0048 7.88504 25.9572 7.43287C26.1543 7.38721 26.3454 7.37375 26.7809 7.37485C27.2841 7.37612 27.3866 7.38609 27.692 7.4634C29.3712 7.8886 30.597 9.23824 30.9534 11.0546C31.0418 11.5049 31.048 12.3014 30.9666 12.7563C30.8054 13.6569 30.43 14.4462 29.8528 15.0977C29.3765 15.6353 28.8918 15.9681 28.0888 16.3089C26.1853 17.1166 23.821 19.5106 22.0542 22.4191C20.9696 24.2048 20.3174 25.8203 20.0675 27.3411C19.866 28.5667 19.7958 28.8336 19.5327 29.3748C19.3029 29.8474 19.0684 30.1843 18.7072 30.5607C18.0709 31.2238 17.3084 31.6427 16.454 31.7987C16.1071 31.8621 15.3764 31.864 15.0419 31.8024V31.8024Z" fill="white"/>
</svg>
