<svg width="167" height="44" viewBox="0 0 167 44" fill="none" xmlns="http://www.w3.org/2000/svg">
<path d="M64.8505 38.2C63.9711 38.2 63.1847 38.0224 62.4915 37.667C61.7982 37.3013 61.2498 36.7787 60.8463 36.0994C60.4531 35.4097 60.2565 34.5736 60.2565 33.5912C60.2565 32.7238 60.4014 31.9975 60.6911 31.4122C60.9912 30.8165 61.3843 30.3306 61.8706 29.9544C62.3569 29.5781 62.9002 29.2855 63.5003 29.0765C64.1004 28.8675 64.7057 28.7159 65.3162 28.6219L69.8946 27.9008C69.936 27.0334 69.8067 26.3697 69.5066 25.9099C69.2169 25.4501 68.8031 25.1365 68.265 24.9693C67.7373 24.8021 67.1372 24.7185 66.4647 24.7185C66.1129 24.7185 65.73 24.7446 65.3162 24.7969C64.9126 24.8491 64.4832 24.938 64.028 25.0634C63.5831 25.1783 63.1123 25.3247 62.6156 25.5023C62.1293 25.6695 61.6275 25.8733 61.1101 26.1137L60.9239 23.1352C61.3067 22.9785 61.7361 22.8269 62.2121 22.6806C62.688 22.5343 63.2002 22.4037 63.7486 22.2887C64.3073 22.1633 64.8816 22.0692 65.4714 22.0065C66.0611 21.9438 66.6612 21.9125 67.2717 21.9125C68.4926 21.9125 69.5377 22.0954 70.4068 22.4611C71.276 22.8269 71.9433 23.4122 72.4089 24.2169C72.8745 25.0111 73.1074 26.0458 73.1074 27.3208C73.1074 27.8224 73.1074 28.4442 73.1074 29.1862C73.1074 29.9282 73.1074 30.618 73.1074 31.2555V33.1366C73.1074 33.8786 73.1074 34.6311 73.1074 35.394C73.1074 36.1569 73.1074 36.9825 73.1074 37.8708H70.1119L69.9257 35.8016H69.6308C69.3307 36.1883 68.9531 36.5645 68.4978 36.9303C68.0529 37.296 67.52 37.5991 66.8992 37.8395C66.2888 38.0798 65.6059 38.2 64.8505 38.2ZM65.937 35.5351C66.4336 35.5351 66.9199 35.4253 67.3959 35.2059C67.8822 34.976 68.3323 34.652 68.7461 34.234C69.16 33.8159 69.517 33.3091 69.817 32.7134V29.9544C69.6618 30.0484 69.4601 30.1372 69.2118 30.2209C68.9738 30.3045 68.6116 30.3985 68.1253 30.503C67.639 30.6075 66.9561 30.7382 66.0766 30.8949C65.5697 30.9785 65.1351 31.1301 64.7729 31.3495C64.4108 31.569 64.1263 31.8564 63.9193 32.2117C63.7227 32.5566 63.6244 32.9694 63.6244 33.4501C63.6244 34.2131 63.8521 34.7513 64.3073 35.0648C64.7729 35.3783 65.3162 35.5351 65.937 35.5351Z" fill="white"/>
<path d="M78.0234 36.0201C77.6923 36.5426 77.3043 37.1592 76.8594 37.8699H80.5532C80.9567 37.201 81.3137 36.6001 81.6241 36.0671C81.9449 35.5237 82.3018 34.9228 82.695 34.2644L84.1694 31.7562H84.4333L86.0784 34.3898C86.482 35.0273 86.8441 35.6073 87.1649 36.1298C87.496 36.6524 87.8633 37.2324 88.2668 37.8699H92.2555C91.5416 36.8353 90.9363 35.9626 90.4397 35.252C89.943 34.5413 89.4308 33.8045 88.9031 33.0416L86.7263 29.9257L88.7945 26.8495C89.1566 26.327 89.4826 25.8515 89.7723 25.423C90.0723 24.9841 90.3827 24.5242 90.7035 24.0435C91.0346 23.5523 91.4278 22.9671 91.883 22.2878H88.1116C87.7081 22.9462 87.3408 23.5523 87.0097 24.1062C86.6889 24.6496 86.3475 25.2349 85.9853 25.8619L84.5419 28.2447H84.2781L82.8347 25.8619C82.4519 25.2244 82.0897 24.6235 81.7483 24.0592C81.4172 23.4844 81.0343 22.8521 80.5998 22.1624L76.8749 22.2878C77.3095 22.9357 77.6923 23.5157 78.0234 24.0278C78.3545 24.5295 78.6753 25.0102 78.9857 25.47C79.2961 25.9299 79.622 26.4263 79.9634 26.9593L81.8869 29.8735L79.9169 33.0103C79.5754 33.5433 79.2547 34.0449 78.9546 34.5152C78.6649 34.9855 78.3545 35.4871 78.0234 36.0201Z" fill="white"/>
<path d="M96.304 44C96.304 42.8608 96.304 41.7374 96.304 40.6296C96.304 39.5323 96.304 38.3409 96.304 37.0554V29.4681C96.304 28.3081 96.304 27.1272 96.304 25.9253C96.304 24.713 96.304 23.5007 96.304 22.2885L99.2839 22.1003L99.377 24.1696H99.6874C99.9875 23.7307 100.37 23.3388 100.836 22.9939C101.302 22.649 101.829 22.3825 102.419 22.1944C103.019 21.9958 103.671 21.8965 104.375 21.8965C105.771 21.8965 106.951 22.2519 107.913 22.9625C108.886 23.6732 109.62 24.6451 110.117 25.8783C110.624 27.1115 110.878 28.4962 110.878 30.0325C110.878 31.4851 110.64 32.8385 110.164 34.0926C109.698 35.3363 108.989 36.3395 108.037 37.1024C107.085 37.8653 105.885 38.2468 104.437 38.2468C103.764 38.2468 103.148 38.158 102.59 37.9803C102.041 37.8026 101.54 37.5466 101.084 37.2122C100.639 36.8778 100.236 36.4754 99.8737 36.0051H99.6254V37.2279C99.6254 38.4297 99.6254 39.5532 99.6254 40.5982C99.6254 41.6538 99.6254 42.7511 99.6254 43.8902L96.304 44ZM103.304 35.3154C104.266 35.3154 105.057 35.0698 105.678 34.5786C106.299 34.0769 106.754 33.429 107.044 32.6347C107.334 31.83 107.479 30.9731 107.479 30.0638C107.479 29.1128 107.323 28.2454 107.013 27.4616C106.713 26.6673 106.253 26.0351 105.632 25.5648C105.011 25.0945 104.219 24.8593 103.257 24.8593C102.781 24.8593 102.316 24.9325 101.86 25.0788C101.415 25.2147 101.001 25.4237 100.619 25.7059C100.236 25.9776 99.9047 26.3225 99.6254 26.7405V33.0737C99.8944 33.5335 100.205 33.9306 100.557 34.2651C100.908 34.5995 101.312 34.8607 101.767 35.0489C102.222 35.2265 102.735 35.3154 103.304 35.3154Z" fill="white"/>
<path fill-rule="evenodd" clip-rule="evenodd" d="M122.853 38.2314C120.959 38.2314 119.402 37.8761 118.181 37.1654C116.96 36.4547 116.055 35.4828 115.465 34.2496C114.886 33.0164 114.596 31.6004 114.596 30.0014C114.596 28.4233 114.875 27.0229 115.434 25.8002C116.003 24.5774 116.831 23.6264 117.917 22.9471C119.004 22.2574 120.318 21.9125 121.859 21.9125C123.194 21.9125 124.343 22.1685 125.305 22.6806C126.267 23.1822 127.007 23.9347 127.524 24.938C128.042 25.9413 128.3 27.1849 128.3 28.6689C128.3 29.066 128.29 29.4266 128.269 29.7506C128.259 30.0641 128.228 30.3776 128.176 30.6911H117.969C118.028 31.535 118.207 32.277 118.507 32.9172C118.89 33.7114 119.469 34.3228 120.245 34.7513C121.032 35.1798 122.02 35.394 123.21 35.394C123.665 35.394 124.162 35.3574 124.7 35.2843C125.248 35.2007 125.796 35.0752 126.345 34.908C126.893 34.7408 127.411 34.5266 127.897 34.2653L128.021 37.1811C127.628 37.3901 127.167 37.573 126.64 37.7297C126.112 37.8865 125.527 38.0067 124.886 38.0903C124.255 38.1844 123.577 38.2314 122.853 38.2314ZM124.374 25.5342C123.743 24.8236 122.915 24.4682 121.89 24.4682C121.094 24.4682 120.4 24.6877 119.811 25.1266C119.221 25.5656 118.761 26.1665 118.429 26.9294C118.243 27.3731 118.111 27.8557 118.032 28.3773L125.333 28.288C125.297 27.111 124.977 26.1931 124.374 25.5342Z" fill="white"/>
<path fill-rule="evenodd" clip-rule="evenodd" d="M140.163 38.2314C138.27 38.2314 136.712 37.8761 135.492 37.1654C134.271 36.4547 133.365 35.4828 132.775 34.2496C132.196 33.0164 131.906 31.6004 131.906 30.0014C131.906 28.4233 132.186 27.0229 132.744 25.8002C133.313 24.5774 134.141 23.6264 135.228 22.9471C136.314 22.2574 137.628 21.9125 139.17 21.9125C140.505 21.9125 141.653 22.1685 142.615 22.6806C143.578 23.1822 144.317 23.9347 144.835 24.938C145.352 25.9413 145.611 27.1849 145.611 28.6689C145.611 29.066 145.6 29.4266 145.58 29.7506C145.569 30.0641 145.538 30.3776 145.487 30.6911H135.28C135.338 31.535 135.517 32.277 135.817 32.9172C136.2 33.7114 136.78 34.3228 137.556 34.7513C138.342 35.1798 139.33 35.394 140.52 35.394C140.975 35.394 141.472 35.3574 142.01 35.2843C142.558 35.2007 143.107 35.0752 143.655 34.908C144.204 34.7408 144.721 34.5266 145.207 34.2653L145.331 37.1811C144.938 37.3901 144.478 37.573 143.95 37.7297C143.422 37.8865 142.838 38.0067 142.196 38.0903C141.565 38.1844 140.887 38.2314 140.163 38.2314ZM141.684 25.5342C141.053 24.8236 140.225 24.4682 139.201 24.4682C138.404 24.4682 137.711 24.6877 137.121 25.1266C136.531 25.5656 136.071 26.1665 135.74 26.9294C135.553 27.3731 135.421 27.8557 135.343 28.3773L142.643 28.288C142.607 27.111 142.288 26.1931 141.684 25.5342Z" fill="white"/>
<path d="M150.205 37.8706C150.205 36.7314 150.205 35.6289 150.205 34.5629C150.205 33.4969 150.205 32.3212 150.205 31.0358V29.4681C150.205 28.3081 150.205 27.1272 150.205 25.9253C150.205 24.713 150.205 23.5007 150.205 22.2885L153.045 22.1003L153.17 25.1729H153.48C153.894 24.2532 154.365 23.5582 154.892 23.0879C155.42 22.6177 155.958 22.3041 156.506 22.1474C157.055 21.9802 157.567 21.8965 158.043 21.8965C158.312 21.8965 158.591 21.9174 158.881 21.9592C159.171 22.0011 159.445 22.069 159.704 22.163L159.409 25.4864C159.047 25.4237 158.721 25.3767 158.431 25.3453C158.141 25.314 157.81 25.2983 157.438 25.2983C157.148 25.2983 156.827 25.3401 156.475 25.4237C156.124 25.4968 155.767 25.6536 155.405 25.894C155.053 26.1343 154.711 26.4949 154.38 26.9756C154.059 27.4459 153.775 28.0677 153.527 28.8411V31.2082C153.527 32.41 153.527 33.5387 153.527 34.5943C153.527 35.6393 153.527 36.7314 153.527 37.8706H150.205Z" fill="white"/>
<path d="M43.0774 37.8515C42.0998 37.7301 41.1712 37.2311 40.4847 36.4583C39.7006 35.5757 39.3046 34.5132 39.3043 33.2917C39.3043 32.7331 39.3518 32.3894 39.4968 31.9004C39.7916 30.9065 40.2933 30.202 41.2207 29.4799C44.0336 27.2896 47.8229 20.7618 49.5095 15.2006C49.9839 13.6365 50.2239 12.4294 50.2851 11.2993C50.3247 10.5673 50.399 10.0269 50.5136 9.63747C50.9426 8.17888 52.0825 7.0379 53.4886 6.65953C54.5076 6.38534 55.5434 6.51251 56.484 7.02728C57.7096 7.69805 58.558 8.9669 58.7589 10.4292C58.8244 10.9064 58.8043 11.6572 58.7148 12.073C58.5276 12.9422 58.1708 13.6402 57.5958 14.2616C57.4421 14.4277 57.206 14.6428 57.0711 14.7396C56.1785 15.3804 55.1025 16.5464 54.0786 17.9826C51.4595 21.6561 49.089 26.7389 48.1668 30.6588C47.8891 31.8393 47.7723 32.7086 47.7688 33.6209C47.7656 34.4824 47.4325 35.4423 46.8817 36.1772C46.2632 37.0026 45.3864 37.5691 44.3901 37.7872C44.041 37.8636 43.4198 37.8941 43.0774 37.8515V37.8515ZM21.0419 37.8024C19.4587 37.5112 18.1515 36.2985 17.7033 34.7054C17.5915 34.3079 17.5492 34.0333 17.5008 33.3904C17.3925 31.9515 17.3041 31.3147 17.0893 30.4274C16.3478 27.3638 14.5842 23.3011 12.5588 19.9909C11.5649 18.3664 10.6789 17.15 9.73205 16.1101C9.18762 15.5121 8.81265 15.1587 8.37508 14.8313C7.95399 14.5163 7.73499 14.307 7.47301 13.9693C7.05297 13.428 6.79783 12.8943 6.62943 12.2047C6.54947 11.8772 6.53491 11.7504 6.52171 11.2664C6.50067 10.4945 6.58081 9.98229 6.82172 9.34874C7.3514 7.95575 8.4861 6.93931 9.88768 6.60228C10.3036 6.50227 11.1557 6.49324 11.5765 6.58438C12.443 6.77201 13.1494 7.18058 13.7779 7.85765C14.1725 8.28273 14.4148 8.64716 14.5996 9.09346C14.8681 9.74197 14.9642 10.2194 15.0038 11.1018C15.1022 13.2924 15.9837 16.3076 17.5182 19.7024C18.4949 21.8631 20.0501 24.668 20.5902 25.2429C21.1046 25.7904 21.7904 26.1124 22.5308 26.154C23.2586 26.195 23.9353 25.9795 24.489 25.5304C24.8454 25.2414 25.7546 24.0225 26.4157 22.9474C27.6438 20.9504 28.3633 19.1141 28.4914 17.6498C28.6799 15.4971 30.0048 13.885 31.9572 13.4329C32.1543 13.3872 32.3454 13.3738 32.7809 13.3749C33.2841 13.3761 33.3866 13.3861 33.692 13.4634C35.3712 13.8886 36.597 15.2382 36.9534 17.0546C37.0418 17.5049 37.048 18.3014 36.9666 18.7563C36.8054 19.6569 36.43 20.4462 35.8528 21.0977C35.3765 21.6353 34.8918 21.9681 34.0888 22.3089C32.1853 23.1166 29.821 25.5106 28.0542 28.4191C26.9696 30.2048 26.3174 31.8203 26.0675 33.3411C25.866 34.5667 25.7958 34.8336 25.5327 35.3748C25.3029 35.8474 25.0684 36.1843 24.7072 36.5607C24.0709 37.2238 23.3084 37.6427 22.454 37.7987C22.1071 37.8621 21.3764 37.864 21.0419 37.8024V37.8024Z" fill="white"/>
</svg>
